<svg id="visual" viewBox="0 0 900 600" width="900" height="600" xmlns="http://www.w3.org/2000/svg" xmlns:xlink="http://www.w3.org/1999/xlink" version="1.1"><rect x="0" y="0" width="900" height="600" fill="#1E1E1E"></rect><defs><linearGradient id="grad1_0" x1="33.3%" y1="0%" x2="100%" y2="100%"><stop offset="20%" stop-color="#2ab0ec" stop-opacity="1"></stop><stop offset="80%" stop-color="#2ab0ec" stop-opacity="1"></stop></linearGradient></defs><defs><linearGradient id="grad1_1" x1="33.3%" y1="0%" x2="100%" y2="100%"><stop offset="20%" stop-color="#2ab0ec" stop-opacity="1"></stop><stop offset="80%" stop-color="#34627d" stop-opacity="1"></stop></linearGradient></defs><defs><linearGradient id="grad1_2" x1="33.3%" y1="0%" x2="100%" y2="100%"><stop offset="20%" stop-color="#1e1e1e" stop-opacity="1"></stop><stop offset="80%" stop-color="#34627d" stop-opacity="1"></stop></linearGradient></defs><defs><linearGradient id="grad2_0" x1="0%" y1="0%" x2="66.7%" y2="100%"><stop offset="20%" stop-color="#2ab0ec" stop-opacity="1"></stop><stop offset="80%" stop-color="#2ab0ec" stop-opacity="1"></stop></linearGradient></defs><defs><linearGradient id="grad2_1" x1="0%" y1="0%" x2="66.7%" y2="100%"><stop offset="20%" stop-color="#34627d" stop-opacity="1"></stop><stop offset="80%" stop-color="#2ab0ec" stop-opacity="1"></stop></linearGradient></defs><defs><linearGradient id="grad2_2" x1="0%" y1="0%" x2="66.7%" y2="100%"><stop offset="20%" stop-color="#34627d" stop-opacity="1"></stop><stop offset="80%" stop-color="#1e1e1e" stop-opacity="1"></stop></linearGradient></defs><g transform="translate(900, 0)"><path d="M0 351.5C-66.7 345.3 -133.4 339.2 -175.8 304.4C-218.2 269.7 -236.3 206.5 -261.5 151C-286.8 95.5 -319.2 47.8 -351.5 0L0 0Z" fill="#2c3e4b"></path><path d="M0 234.4C-44.5 230.2 -88.9 226.1 -117.2 203C-145.4 179.8 -157.5 137.7 -174.4 100.7C-191.2 63.7 -212.8 31.8 -234.4 0L0 0Z" fill="#3588b3"></path><path d="M0 117.2C-22.2 115.1 -44.5 113.1 -58.6 101.5C-72.7 89.9 -78.8 68.8 -87.2 50.3C-95.6 31.8 -106.4 15.9 -117.2 0L0 0Z" fill="#2ab0ec"></path></g><g transform="translate(0, 600)"><path d="M0 -351.5C40 -305.8 80 -260 136.5 -236.4C193 -212.9 265.9 -211.5 304.4 -175.8C343 -140.1 347.3 -70 351.5 0L0 0Z" fill="#2c3e4b"></path><path d="M0 -234.4C26.7 -203.8 53.4 -173.3 91 -157.6C128.6 -141.9 177.2 -141 203 -117.2C228.7 -93.4 231.5 -46.7 234.4 0L0 0Z" fill="#3588b3"></path><path d="M0 -117.2C13.3 -101.9 26.7 -86.7 45.5 -78.8C64.3 -71 88.6 -70.5 101.5 -58.6C114.3 -46.7 115.8 -23.3 117.2 0L0 0Z" fill="#2ab0ec"></path></g></svg>