<svg id="visual" viewBox="0 0 900 600" width="900" height="600" xmlns="http://www.w3.org/2000/svg" xmlns:xlink="http://www.w3.org/1999/xlink" version="1.1"><path d="M0 392L30 382.5C60 373 120 354 180 356.2C240 358.3 300 381.7 360 387.2C420 392.7 480 380.3 540 376C600 371.7 660 375.3 720 385.3C780 395.3 840 411.7 870 419.8L900 428L900 601L870 601C840 601 780 601 720 601C660 601 600 601 540 601C480 601 420 601 360 601C300 601 240 601 180 601C120 601 60 601 30 601L0 601Z" fill="#223e4b"></path><path d="M0 449L30 450C60 451 120 453 180 443.2C240 433.3 300 411.7 360 400.3C420 389 480 388 540 397C600 406 660 425 720 429.2C780 433.3 840 422.7 870 417.3L900 412L900 601L870 601C840 601 780 601 720 601C660 601 600 601 540 601C480 601 420 601 360 601C300 601 240 601 180 601C120 601 60 601 30 601L0 601Z" fill="#22363f"></path><path d="M0 444L30 442.7C60 441.3 120 438.7 180 449.7C240 460.7 300 485.3 360 490.5C420 495.7 480 481.3 540 481.2C600 481 660 495 720 499.7C780 504.3 840 499.7 870 497.3L900 495L900 601L870 601C840 601 780 601 720 601C660 601 600 601 540 601C480 601 420 601 360 601C300 601 240 601 180 601C120 601 60 601 30 601L0 601Z" fill="#222e34"></path><path d="M0 481L30 479.8C60 478.7 120 476.3 180 486.2C240 496 300 518 360 529.7C420 541.3 480 542.7 540 531.5C600 520.3 660 496.7 720 493.8C780 491 840 509 870 518L900 527L900 601L870 601C840 601 780 601 720 601C660 601 600 601 540 601C480 601 420 601 360 601C300 601 240 601 180 601C120 601 60 601 30 601L0 601Z" fill="#202629"></path><path d="M0 521L30 529C60 537 120 553 180 553C240 553 300 537 360 533.7C420 530.3 480 539.7 540 547.3C600 555 660 561 720 563.3C780 565.7 840 564.3 870 563.7L900 563L900 601L870 601C840 601 780 601 720 601C660 601 600 601 540 601C480 601 420 601 360 601C300 601 240 601 180 601C120 601 60 601 30 601L0 601Z" fill="#1e1e1e"></path></svg>