<svg id="visual" viewBox="0 0 900 600" width="900" height="600" xmlns="http://www.w3.org/2000/svg" xmlns:xlink="http://www.w3.org/1999/xlink" version="1.1"><path d="M0 351L30 360C60 369 120 387 180 394.8C240 402.7 300 400.3 360 392.3C420 384.3 480 370.7 540 377.8C600 385 660 413 720 423.5C780 434 840 427 870 423.5L900 420L900 601L870 601C840 601 780 601 720 601C660 601 600 601 540 601C480 601 420 601 360 601C300 601 240 601 180 601C120 601 60 601 30 601L0 601Z" fill="#223e4b"></path><path d="M0 471L30 459.2C60 447.3 120 423.7 180 424.5C240 425.3 300 450.7 360 455.3C420 460 480 444 540 437.3C600 430.7 660 433.3 720 426.7C780 420 840 404 870 396L900 388L900 601L870 601C840 601 780 601 720 601C660 601 600 601 540 601C480 601 420 601 360 601C300 601 240 601 180 601C120 601 60 601 30 601L0 601Z" fill="#22363f"></path><path d="M0 503L30 495.2C60 487.3 120 471.7 180 464.5C240 457.3 300 458.7 360 457.8C420 457 480 454 540 459C600 464 660 477 720 480.3C780 483.7 840 477.3 870 474.2L900 471L900 601L870 601C840 601 780 601 720 601C660 601 600 601 540 601C480 601 420 601 360 601C300 601 240 601 180 601C120 601 60 601 30 601L0 601Z" fill="#222e34"></path><path d="M0 507L30 512.5C60 518 120 529 180 534.7C240 540.3 300 540.7 360 539.2C420 537.7 480 534.3 540 533.5C600 532.7 660 534.3 720 527.7C780 521 840 506 870 498.5L900 491L900 601L870 601C840 601 780 601 720 601C660 601 600 601 540 601C480 601 420 601 360 601C300 601 240 601 180 601C120 601 60 601 30 601L0 601Z" fill="#202629"></path><path d="M0 542L30 540.3C60 538.7 120 535.3 180 536C240 536.7 300 541.3 360 542C420 542.7 480 539.3 540 536.3C600 533.3 660 530.7 720 528.5C780 526.3 840 524.7 870 523.8L900 523L900 601L870 601C840 601 780 601 720 601C660 601 600 601 540 601C480 601 420 601 360 601C300 601 240 601 180 601C120 601 60 601 30 601L0 601Z" fill="#1e1e1e"></path></svg>